<!-- Generated by IcoMoon.io -->
<svg version="1.1" xmlns="http://www.w3.org/2000/svg" width="32" height="32" viewBox="0 0 32 32">
<title>tank</title>
<path d="M30.824 12.302c0.65 0 1.176-0.526 1.176-1.176s-0.526-1.176-1.176-1.176h-6.794v-0.589c0-0.65-0.526-1.176-1.176-1.176h-13.456c-0.65 0-1.176 0.526-1.176 1.176v3.592h-3.733c-0.396 0-0.766 0.199-0.983 0.531l-3.315 5.047c-0.237 0.36-0.257 0.823-0.052 1.203s0.603 0.618 1.035 0.618h0.096c0.028 1.912 1.588 3.46 3.508 3.46 0.937 0 1.786-0.374 2.417-0.974 0.63 0.601 1.478 0.974 2.417 0.974s1.786-0.374 2.417-0.974c0.63 0.601 1.478 0.974 2.417 0.974s1.786-0.374 2.417-0.974c0.631 0.601 1.479 0.974 2.417 0.974s1.785-0.374 2.417-0.974c0.631 0.601 1.479 0.974 2.417 0.974 1.938 0 3.511-1.576 3.511-3.511 0-0.047-0.013-0.089-0.015-0.136 0.142-0.088 0.269-0.201 0.362-0.343l3.315-5.047c0.238-0.361 0.257-0.823 0.052-1.204s-0.604-0.618-1.035-0.618h-6.271v-0.652l6.794-0.001zM4.779 21.463c-0.64 0-1.161-0.522-1.161-1.159 0-0.64 0.521-1.16 1.161-1.16s1.16 0.52 1.16 1.16c0 0.639-0.521 1.159-1.16 1.159zM9.611 21.463c-0.64 0-1.161-0.522-1.161-1.159 0-0.64 0.521-1.16 1.161-1.16s1.16 0.52 1.16 1.16c0 0.639-0.52 1.159-1.16 1.159zM14.444 21.463c-0.64 0-1.161-0.522-1.161-1.159 0-0.64 0.521-1.16 1.161-1.16s1.16 0.52 1.16 1.16c0 0.639-0.52 1.159-1.16 1.159zM19.276 21.463c-0.639 0-1.16-0.522-1.16-1.159 0-0.64 0.521-1.16 1.16-1.16s1.159 0.52 1.159 1.16c0.001 0.639-0.519 1.159-1.159 1.159zM24.108 21.463c-0.64 0-1.16-0.522-1.16-1.159 0-0.64 0.521-1.16 1.16-1.16s1.159 0.52 1.159 1.16c0.001 0.639-0.519 1.159-1.159 1.159z"></path>
</svg>
