<!-- Generated by IcoMoon.io -->
<svg version="1.1" xmlns="http://www.w3.org/2000/svg" width="32" height="32" viewBox="0 0 32 32">
<title>teddy</title>
<path d="M28.456 11.3h-4.493c0.213-1.252 0.132-2.569-0.245-3.939 1.522-0.508 2.574-1.954 2.574-3.581 0-2.081-1.693-3.775-3.775-3.775-1.101 0-2.121 0.479-2.823 1.27-2.353-1.699-5.032-1.699-7.386 0-0.702-0.79-1.722-1.27-2.823-1.27-2.081 0-3.775 1.693-3.775 3.775 0 1.625 1.049 3.072 2.574 3.581-0.377 1.37-0.458 2.687-0.245 3.939h-4.493c-1.852 0-3.358 1.507-3.358 3.358s1.507 3.359 3.358 3.359h4.809v1.457c-2.45 0.585-4.3 3.142-4.3 6.2 0 3.488 2.407 6.326 5.366 6.326 1.841 0 3.522-1.098 4.499-2.868 1.361 0.384 2.801 0.384 4.163 0 0.977 1.771 2.658 2.868 4.499 2.868 2.959 0 5.366-2.838 5.366-6.326 0-3.058-1.85-5.615-4.3-6.2v-1.457h4.809c1.852 0 3.358-1.507 3.358-3.359s-1.507-3.358-3.358-3.358zM9.42 29.139c-1.381 0-2.505-1.124-2.505-2.505s1.124-2.505 2.505-2.505c1.381 0 2.505 1.124 2.505 2.505s-1.124 2.505-2.505 2.505zM17.352 27.12c-0.886 0.224-1.817 0.224-2.704 0 0.372-1.863 0.003-3.927-1.085-5.476 1.508-1.381 3.305-1.436 4.874 0-1.105 1.573-1.45 3.645-1.085 5.476zM19.583 12.356c-0.807 1.193-2.146 1.906-3.583 1.906-1.429 0-2.765-0.707-3.573-1.891-0.332-0.487-0.207-1.15 0.28-1.482s1.15-0.207 1.482 0.28c0.195 0.286 0.452 0.517 0.744 0.681v-1.033c0-0.589 0.477-1.066 1.066-1.066s1.066 0.477 1.066 1.066v1.033c0.295-0.165 0.553-0.398 0.749-0.688 0.33-0.488 0.993-0.616 1.481-0.286s0.616 0.993 0.286 1.481zM25.085 26.634c0 1.381-1.124 2.505-2.505 2.505s-2.505-1.124-2.505-2.505 1.124-2.505 2.505-2.505c1.381-0 2.505 1.124 2.505 2.505z"></path>
</svg>
