<!-- Generated by IcoMoon.io -->
<svg version="1.1" xmlns="http://www.w3.org/2000/svg" width="32" height="32" viewBox="0 0 32 32">
<title>telegram</title>
<path d="M27.613 4.873c0 0 2.59-1.010 2.374 1.443-0.072 1.010-0.719 4.545-1.223 8.369l-1.727 11.326c0 0-0.144 1.659-1.439 1.948s-3.238-1.010-3.598-1.299c-0.288-0.216-5.396-3.463-7.195-5.050-0.504-0.433-1.079-1.299 0.072-2.309l7.555-7.214c0.863-0.866 1.727-2.886-1.871-0.433l-10.073 6.854c0 0-1.151 0.721-3.31 0.072l-4.677-1.443c0 0-1.727-1.082 1.223-2.164 7.195-3.391 16.045-6.854 23.887-10.1z"></path>
</svg>
