<?xml version="1.0" encoding="iso-8859-1"?>
<!-- Uploaded to: SVG Repo, www.svgrepo.com, Generator: SVG Repo Mixer Tools -->
<svg fill="#000000" height="800px" width="800px" version="1.1" id="Layer_1" xmlns="http://www.w3.org/2000/svg" xmlns:xlink="http://www.w3.org/1999/xlink" 
	 viewBox="0 0 511.999 511.999" xml:space="preserve">
<g>
	<g>
		<path d="M455.291,180.798h-71.893c3.403-20.036,2.111-41.106-3.919-63.02c24.352-8.133,41.178-31.261,41.178-57.302
			c0-33.302-27.094-60.398-60.398-60.398c-17.623,0-33.94,7.669-45.174,20.313C277.43-6.794,234.567-6.8,196.915,20.392
			C185.681,7.745,169.363,0.078,151.74,0.078c-33.303,0-60.398,27.094-60.398,60.398c0,25.998,16.783,49.156,41.179,57.301
			c-6.03,21.916-7.323,42.988-3.92,63.021H56.707c-29.629,0-53.735,24.105-53.735,53.735c0,29.636,24.106,53.746,53.735,53.746
			h76.944v23.31c-39.197,9.354-68.798,50.279-68.798,99.2c0,55.807,38.517,101.211,85.862,101.211
			c29.454,0,56.349-17.566,71.984-45.894c21.771,6.148,44.811,6.152,66.601,0c15.638,28.332,42.532,45.894,71.983,45.894
			c47.344,0,85.862-45.403,85.862-101.211c0-48.923-29.601-89.847-68.798-99.2v-23.31h76.944c29.629,0,53.735-24.11,53.735-53.746
			C509.026,204.903,484.92,180.798,455.291,180.798z M150.717,466.228c-22.099,0-40.077-17.979-40.077-40.077
			s17.979-40.077,40.077-40.077c22.098,0,40.077,17.979,40.077,40.077S172.815,466.228,150.717,466.228z M277.628,433.913
			c-14.179,3.58-29.08,3.58-43.259,0c5.953-29.804,0.041-62.838-17.362-87.614c24.134-22.089,52.876-22.969,77.982,0
			C277.308,371.469,271.782,404.625,277.628,433.913z M313.32,197.688c-12.911,19.094-34.34,30.494-57.322,30.494
			c-22.868,0-44.237-11.311-57.161-30.258c-5.311-7.786-3.306-18.402,4.48-23.713c7.785-5.31,18.402-3.305,23.712,4.48
			c3.125,4.581,7.225,8.269,11.905,10.89v-16.524c0-9.424,7.64-17.064,17.064-17.064c9.424,0,17.064,7.64,17.064,17.064v16.527
			c4.721-2.644,8.851-6.375,11.987-11.013c5.28-7.806,15.888-9.854,23.694-4.577C316.55,179.274,318.6,189.882,313.32,197.688z
			 M401.358,426.151c0,22.099-17.979,40.077-40.077,40.077c-22.098,0-40.077-17.979-40.077-40.077s17.979-40.077,40.077-40.077
			C383.38,386.073,401.358,404.052,401.358,426.151z"/>
	</g>
</g>
</svg>