<svg class="svg-icon" style="width: 20px; height: 20px;vertical-align: middle;fill: currentColor;overflow: hidden;" viewBox="0 0 1024 1024" version="1.1" xmlns="http://www.w3.org/2000/svg"><path d="M896 256h-170.666667V128a42.666667 42.666667 0 0 0-42.666666-42.666667H341.333333a42.666667 42.666667 0 0 0-42.666666 42.666667v128H128a42.666667 42.666667 0 0 0-42.666667 42.666667v597.333333a42.666667 42.666667 0 0 0 42.666667 42.666667h768a42.666667 42.666667 0 0 0 42.666667-42.666667V298.666667a42.666667 42.666667 0 0 0-42.666667-42.666667zM384 170.666667h256v85.333333H384V170.666667z m469.333333 682.666666H170.666667V341.333333h682.666666v512z" fill="" /><path d="M554.666667 426.666667h-85.333334v128H341.333333v85.333333h128v128h85.333334v-128h128v-85.333333h-128z" fill="black" /></svg>