<svg xmlns="http://www.w3.org/2000/svg" width="200" height="200" version="1.2"><style>.a{fill:#bdbdbd}</style><path fill-rule="evenodd" d="m37.5 62.2-.9 1.9-2.1-1-3.7 7.4 2.1 1.1-.9 1.8-4-1.9.3-.6q.2-.4 0-.9t-.8-1q-.6-.6-1.6-1.3-1.1-.7-2.7-1.5l-3.1-1.7 3.6-7.3 9.1 4.5.8-1.4zm-5.8 1.6-7.2-3.6-1.6 3.2 1.5.8q1.6.9 2.6 1.6 1.1.7 1.7 1.3.6.6.8 1.2zM41.1 52.8q-.3 1.1-1 2.2-.8 1-1.9 1.6-1.1.6-2.3.6-1.2.1-2.3-.2-1.2-.3-2.1-1-1-.8-1.6-1.8-.6-1-.8-2.2-.2-1.1 0-2.3.3-1.2 1.1-2.2.8-1.1 1.9-1.7 1.1-.5 2.2-.6 1.2-.1 2.4.3 1.1.3 2 1 1 .7 1.6 1.7.6 1.1.9 2.2.2 1.2-.1 2.4zm-2.1-2q-.2-.7-.7-1.4-.4-.6-1-1-.7-.5-1.4-.8-.7-.2-1.5-.2-.7 0-1.4.4-.6.3-1.1 1-.6.7-.7 1.4-.1.7.1 1.4.2.8.6 1.4.5.6 1.1 1.1.6.4 1.3.7.8.2 1.5.2.8 0 1.4-.3.7-.3 1.2-1t.6-1.5q.2-.7 0-1.4z" class="a"/><path d="M51.2 41.2q-.1 1.1-.6 2-.6.9-1.3 1.6-1 .9-2.1 1.2-1.2.4-2.4.3-1.2-.2-2.3-.7-1.1-.5-1.8-1.4-.8-.8-1.2-1.9-.5-1-.5-2.2-.1-1.2.4-2.3.5-1.2 1.5-2.1 1.3-1.2 2.7-1.5 1.4-.3 2.6.2l-.5 2.1q-.7-.3-1.3-.2-.6 0-1.2.3-.5.3-.9.6-.7.7-.9 1.4-.2.7-.2 1.4.1.8.4 1.4.4.7.9 1.2.5.6 1.2 1t1.5.5q.7.1 1.4-.1t1.3-.8q.4-.4.7-.9.3-.5.4-1.2.1-.6-.1-1.3l2.2-.5q.3.9.1 1.9z" class="a"/><path fill-rule="evenodd" d="M61.9 33.6q0 .8-.6 1.6t-1.5 1.4l-4.9 3.3-6.7-10.2 5.4-3.6q.8-.5 1.5-.5.8.1 1.5.5t1.1 1q.5.8.5 1.7.1.9-.4 1.7 1-.3 2 0t1.6 1.3q.6.9.5 1.8zm-8.9-1 2.6-1.7q.4-.2.5-.6.2-.3.2-.7-.1-.4-.3-.8-.3-.4-.6-.6-.4-.2-.7-.2-.4 0-.7.3l-2.7 1.8zm6.4.9q0-.4-.2-.8-.3-.4-.7-.6-.3-.2-.7-.2-.4 0-.7.2l-3.1 2 1.8 2.7 2.9-1.9q.4-.3.6-.6.1-.4.1-.8z" class="a"/><path d="m67.8 32.2-2.1 1.1-5.4-11 2.1-1z" class="a"/><path fill-rule="evenodd" d="m82.8 29.1-2 .7-.7-2.2-8 2.6.8 2.2-2 .7-1.4-4.2.6-.2q.5-.1.7-.6.2-.4.2-1.3-.1-.8-.3-2-.3-1.3-.8-3l-1-3.4 7.7-2.6 3.2 9.7 1.6-.6zm-5.2-2.9L75 18.6l-3.4 1.1.5 1.7q.5 1.7.8 2.9.2 1.3.2 2.1 0 .9-.3 1.4zM98.9 23.4q-.4.8-1.3 1.2-.9.4-2 .5l-5.9.5-.9-12.2 6.5-.5q.9-.1 1.6.3.6.4 1 1.1.4.7.5 1.5 0 .9-.4 1.7-.3.8-1.2 1.2 1.1.3 1.8 1 .6.8.7 2 .1 1-.4 1.7zm-7.3-5.1 3.1-.2q.4-.1.7-.3.4-.2.5-.6.2-.3.2-.8-.1-.5-.3-.8-.2-.3-.5-.5t-.7-.1l-3.3.2zm5.4 3.1q-.1-.4-.3-.8-.2-.3-.5-.5-.4-.2-.8-.2l-3.6.3.2 3.2 3.5-.3q.5 0 .8-.2.3-.3.5-.7.2-.3.2-.8z" class="a"/><path d="m105.5 15-.3 2.9 5.2.5-.2 1.9-5.1-.4-.3 3.1 6.1.5-.1 2.1-8.5-.7 1-12.2 8.3.7-.2 2.1zM125.1 16.3l-.4 2-3.9-.9-2.3 9.9-2.3-.6 2.3-9.9-3.8-.8.5-2.1zM130.6 20.4l-1.1 2.8 4.8 1.9-.7 1.8-4.8-1.9-1.2 2.9 5.7 2.3-.8 1.9-7.9-3.1 4.6-11.4 7.7 3.1-.8 2z" class="a"/><path fill-rule="evenodd" d="M147.4 29.5q-.2.8-.6 1.5-.5.8-1.4 1.4-.9.6-1.9.6-1 .1-2-.5L139 31l-2.1 3.6-2-1.2 6.2-10.6 4.5 2.7q.7.4 1.1 1.1.5.6.6 1.4.2.8.1 1.5zm-2.3-.8q0-.5-.2-.9t-.5-.6l-2.3-1.4-2 3.4 2.3 1.5q.4.2.8.1.4 0 .9-.3.4-.3.7-.8.3-.5.3-1zM156.2 33.1 152 45.4l-1.9-1.5 1.1-3-3.5-2.9-2.7 1.7-1.9-1.5 11.2-6.6zm-2.5 1.1-4.5 2.9 2.6 2.1z" class="a"/><path d="m169.5 46.6-9.3 8.1-1.5-1.8 3.9-3.4-3.6-4.2-4 3.4-1.5-1.8 9.2-8 1.6 1.8-3.8 3.2 3.7 4.2 3.7-3.3zM173.6 52.7l-10.2 6.8-1.3-2 10.2-6.7z" class="a"/><path fill-rule="evenodd" d="M179.5 64.3q-.1.8-.6 1.4-.5.6-1.2 1-.8.4-1.7.3-.9 0-1.6-.6.2 1.1-.3 2-.4.9-1.5 1.4-.9.5-1.8.3-.9-.1-1.6-.8-.7-.6-1.2-1.6l-2.6-5.3 10.9-5.5 2.9 5.9q.4.8.3 1.5zm-6.7 1.2-1.7-3.3-2.9 1.4 1.6 3.2q.2.4.6.6.3.2.7.2.4.1.8-.1t.7-.6q.2-.3.3-.7 0-.4-.1-.7zm4.2-2.6-1.4-2.9-2.8 1.4 1.4 2.8q.2.4.5.6.3.2.7.2.4 0 .9-.2.4-.2.6-.5.2-.3.3-.7 0-.4-.2-.7z" class="a"/><path d="m27.3 120.9-12.9-2.1-.5-2.3 11.1-7 .5 2.5-8.6 5.1 9.9 1.3zM31.1 131l-1.9.7-2.1-5.5-2.8 1 1.8 4.8-1.8.7-1.8-4.8-3 1.1 2.2 5.7-2 .8-3-8 11.5-4.3zM37.1 141.8l-1.8 1-2-3.4-8.8 5.1-1.2-2.1 8.8-5-1.9-3.4 1.8-1zM38.5 147.1l-2.3 1.8 3.2 4.1-1.5 1.2-3.2-4.1-2.5 2 3.8 4.8-1.7 1.3-5.3-6.7 9.6-7.6 5.2 6.6-1.6 1.2z" class="a"/><path fill-rule="evenodd" d="M51.2 159.2q0 .8-.3 1.5-.3.8-.8 1.3-.5.6-1.2.9-.6.4-1.4.5-.7 0-1.4-.2l-1 5.3-2-1.8.9-4.7-1.7-1.6-2.8 3-1.8-1.6 8.3-9 4 3.6q.6.6.9 1.3.3.7.3 1.5zm-2.3-.6q-.1-.5-.4-.8l-2.2-1.9-2.6 2.9 2.2 2q.3.3.7.4.5 0 .9-.2.5-.2.9-.6.4-.4.5-.9.1-.5 0-.9zM60.4 164.1l-2.9 12.7-2-1.3.8-3.1-3.8-2.4-2.5 2-2.1-1.3 10.4-7.9zm-2.3 1.4-4.2 3.4 2.9 1.8z" class="a"/><path d="M76.2 171.8 71.5 183l-1.8-.7-2.8-9.7-3 7.3-2.2-.9 4.7-11.3 1.8.7 2.7 9.9 3.1-7.5zM86.4 181.3q.3.7.1 1.8-.3 1-.8 1.6-.5.6-1.2.9-.7.2-1.5.3-.9 0-1.8-.2-.8-.2-1.7-.6-.9-.4-1.6-.9-.7-.5-1.3-1.2l1.4-1.8q.2.2.5.6.3.3.8.7.5.3 1.2.6.6.3 1.2.5 1 .2 1.5 0 .6-.2.7-.8.2-.5-.2-.9-.3-.4-.9-.8-.7-.4-1.6-.8-1-.6-1.7-1.2-.7-.5-.9-1.2-.2-.7 0-1.6.2-1.2 1-1.9t1.9-.9q1.1-.2 2.3 0 .8.2 1.5.6.7.3 1.3.8.6.4 1.1.9l-1.5 1.6-.4-.4q-.2-.2-.6-.5-.4-.3-.9-.6-.5-.2-1.1-.3-.9-.3-1.5 0-.5.2-.7.9-.1.5.2.8.2.4.8.7.5.3 1.4.8 1.1.5 1.9 1.1.8.6 1.1 1.4zM105.3 187.5l-8.5.2-.2-12.2 8.4-.2v2.1l-6 .1.1 2.9h5.1l.1 1.9-5.2.1.1 3.2 6.1-.1zM119.8 185.6l-2.6.4-3.5-3.8-2.2 4.7-2.5.4 3-6.6-5.1-5.4 2.5-.4 3.8 3.9 2.2-4.9 2.6-.4-3.2 6.8z" class="a"/><path fill-rule="evenodd" d="M130.3 175.8q-.2 1-.8 1.9-.6.8-1.7 1.1l-2.8 1 1.3 3.8-2.2.8-3.9-11.6 4.9-1.6q.8-.3 1.6-.2.8.1 1.5.5.6.4 1.2 1 .5.6.7 1.3.3 1 .2 2zm-2.5-1.3q-.2-.6-.6-.9-.3-.4-.7-.5-.5 0-.9.1l-2.5.8 1.3 3.8 2.6-.9q.4-.1.6-.5.3-.3.3-.8.1-.5-.1-1.1z" class="a"/><path d="m144.6 175.7-7.6 3.9-5.6-10.9 7.4-3.8 1 1.8-5.3 2.8 1.3 2.6 4.6-2.4.9 1.7-4.6 2.4 1.5 2.8 5.4-2.8z" class="a"/><path fill-rule="evenodd" d="m150.2 166.9-2 1.4 2.5 3.3-1.9 1.4-7.3-9.8 4.3-3.2q.7-.5 1.5-.7.8-.1 1.5.1.8.1 1.5.5.6.4 1.1 1 .4.7.7 1.4.2.7.1 1.5-.1.7-.5 1.3l5 2-2.1 1.6zm-.2-3.6q-.1-.5-.5-.9-.3-.5-.8-.7-.4-.2-.9-.2-.4 0-.8.3l-2.3 1.7 2.4 3.1 2.4-1.7q.3-.3.4-.7.2-.4.1-.9z" class="a"/><path d="m161.6 162.5-1.8 1.7-8.4-8.9 1.7-1.6zM170.6 152.3l-5.4 6.6-9.5-7.8 5.4-6.4 1.6 1.3-3.8 4.6 2.2 1.9 3.3-4 1.5 1.2-3.3 4 2.5 2 3.9-4.7zM177.9 140.7l-10 1.5 6.9 3.9-1.2 2.1-10.6-6.1.9-1.7 10.2-1.4-7-4 1.2-2.1 10.6 6.1zM183.4 126.7q0 1.1-.3 2-.5 1.3-1.3 2.1-.9.9-2 1.3t-2.4.5q-1.2 0-2.3-.4-1-.3-1.9-1.1-.9-.7-1.5-1.7-.5-1.1-.7-2.3-.1-1.2.4-2.6.6-1.6 1.7-2.5 1.1-.9 2.4-1.1l.6 2.2q-.8 0-1.3.4-.6.3-.9.8-.4.5-.5 1-.3.8-.2 1.6.1.7.5 1.3.4.7 1 1.1.6.4 1.3.7.8.3 1.6.3t1.5-.3q.7-.2 1.2-.8.5-.5.8-1.2.2-.5.2-1.2 0-.6-.2-1.2t-.7-1.1l1.7-1.4q.7.6 1 1.6.4 1 .3 2zM187.2 111l-1.5 8.3-12-2.1 1.4-8.2 2.1.4-1 5.8 2.9.5.9-5 1.9.3-.9 5.1 3.1.5 1.1-6z" class="a"/><path fill-rule="evenodd" d="M168.1 100.1c0 37.4-30.5 67.9-68 67.9S32 137.5 32 100.1c0-37.5 30.6-67.9 68.1-67.9 37.5 0 68 30.4 68 67.9zm-33.5-31.6c-8.7-10.4-27.1-14.8-35.3-15.4-13.4-1-25.7 4.7-32.7 14.1-7.1 9.3-10.9 29.8-8.2 33 2.7 3.2 9.1 2.4 13.2-1.1 4.2-3.5 5.7-14.2 10.3-16.6 4.6-2.5 20.2-2.1 26.1 1.1q1 .5 2.1 1.1c.8.5 1.4 1.3 1.4 2.3l.4 16.9c0 .3-.3.5-.5.5-.5 0-.8.3-.8.8v4.6c0 .5.4.9.8.8.3 0 .5.3.5.5l-.6 14.4c0 .4-.4.6-.7.4-1.6-.8-5.9-3-11.8-4.9-.2 0-.3-.3-.2-.5.2-.4-.1-.9-.5-1l-5.3-1.2c-.3-.1-.7.1-.9.4-.1.3-.4.5-.7.4-2.6-.5-13.9-2.3-15.7-3.7-2-1.5-2.5-14-7.7-11.3-5.2 2.7-2.7 7.5-1.5 8.9 1.2 1.4 3.1 4.6 4.1 5.1.9.3 16.2 3.8 19.5 4.5.2.1.4.4.3.6-.2.4.1.8.4 1l5.1 1.6c.4.1.9-.1 1-.5 0-.2.3-.4.5-.3 1.6.5 7.9 2.5 12 5 4.8 2.9 4.9 3.9 6.8 6.1 1.9 2.1 6.7 8.6 8.8 6.2 3.1-3.4-9.7-10.4-9.5-14.6.2-2.7.8-14.3.9-16.6 0-.3.2-.5.4-.5.5.1.9-.4.9-.9l.1-4.6c0-.5-.4-1-.9-1-.3 0-.6-.3-.6-.6l.1-14.6c0-.3.4-.5.6-.3 4.1 2.2 8.3 4.4 12 5.4 6.6 1.7 11.8 2.3 13.7 1.1 1.9-1.1.7-16.3-7.9-26.6zm-15.2 75.6c-1.6-1.3-3.1-3.1-4.8-5.1q-.5-.6-.9-1-.7-.8-1.1-1.4c-1-1.2-1.7-2.1-4.9-4-3-1.8-7.4-3.4-9.8-4.2q-.1-.1-.2 0-.8.4-1.8.4-.6 0-1.1-.2l-5.1-1.6c-.9-.3-1.6-.9-2.1-1.7q-.1-.1-.2-.1c-2.3-.5-5.7-1.3-8.9-2.1-2.6-.6-4.4-1-5.8-1.3-.1-.1-.3 0-.4.2-.4 1.8-.8 3.6-.9 4.7-.3 2.2-2 3.5-2.9 5.2-.8 1.8 2.6 3.4 4.9 4.4 2.3.9 6.2 4.9 10.2 5.3 4.1.4 9.6 3.4 11.2 3.6 1.6.3 8.7-.1 11.7-.1 3-.1 11.9.5 13-.5.1-.2.1-.4-.1-.5zm18.1-31.1c-.2-.2-.5-.1-.6 0-1 1-2.1 1.8-3.4 2.4q-.7.4-1.6.4c-.9 0-1.7-.3-2.4-.9q-.1-.2-.3-.3c-1.2-1.1-2.8-2.6-6.2-2.8q-.8-.1-1.5-.5c-.5-.3-1.2-.1-1.5.4q-.2.3-.4.5c-.3.4-.5 1-.5 1.5-.2 3.9-.6 10.5-.7 13.3 0 .6.1 1.1.4 1.5q.2.4.7.9c.8.9 1.9 2 3 3 1.6 1.6 3.2 3.2 4.3 4.8q.6.8.9 1.5c.2.4.6.7 1 .8q.2 0 .4-.1c.7-.2.9-1.5 1-4.9.2-5.1 2.7-8.9 3.9-11.2 1.3-2.7 4-2.7 4.6-5.9.2-1.6 0-3.3-1.1-4.4zm3.2-13c-6.6-2.4-15.9-2.9-21.2-2.9-.2 0-.3.1-.3.3l-.1 3.5c0 .2.2.3.4.3 1.4.1 2.8.2 4 .3.3 0 .5.2.5.5.2 3.3-.6 5.5-1.1 6.3-.1.2.1.5.3.5 4.8.3 7 2.7 8.3 3.8.2.2.5.2.7.1 5-2.5 8-9.9 8.8-12 .1-.3 0-.6-.3-.7zm-33.1 9.8v-4.6c0-1.1.4-2 1.1-2.7q.1-.1.1-.4l-.1-6.7c0-.2-.2-.4-.4-.5-3.2-1.2-9.1-3.3-10.6-3.3-1.6 0-5.1 3.1-9.2 6.7-1.1 1-2.1 1.9-3.3 2.9-3.5 3.1-6.8 4.5-9.2 5.1-.3 0-.5.4-.4.7.4 1.1.7 2.2 1 3.3.3.8.6 1.9.8 2.6q.1.2.4.3c.6.2 2 .7 4.8 1.3 2.7.6 5.6 1.1 7.6 1.4q.3.1.4-.1c.6-.3 1.3-.6 2.1-.6q.4 0 .8.1l5.3 1.3c1 .2 1.9.9 2.4 1.9q.2.2.4.3c2.3.8 4.4 1.6 6.1 2.4.4.1.7-.1.8-.5l.3-7.9q0-.2-.2-.3c-.6-.7-1-1.7-1-2.7zm1-19.1-.1-3c0-.3-.2-.6-.4-.7q-.8-.4-1.5-.8c-2.6-1.4-8.3-2.3-14.2-2.3-5 0-8 .6-9.1 1.2-1.5.8-3 4.4-4.3 7.2-1.4 3.4-3 7-5.4 9.1q-.1.1-.3.1c-.3.3-.3.8 0 1.1l.4.6c.2.3.5.4.8.3 2.1-.4 5.2-1.5 8.7-4.5 1.2-1.1 2.2-2 3.3-2.9 5.3-4.7 8.5-7.5 11.2-7.5 1.7 0 5.3 1.2 9.8 2.8.5.2 1.1-.2 1.1-.7zm2.9-23.4-.8 4.2c-.1.3-.3.5-.6.4l-4.8-.8c-.3-.1-.5.1-.6.4l-.9 4.7c0 .3-.3.5-.6.4l-4.2-.7c-.3-.1-.5-.4-.4-.6l.9-4.8c0-.3-.2-.5-.4-.6l-4.8-.9c-.3 0-.5-.3-.4-.6l.8-4.2c0-.3.3-.5.5-.4l4.8.9c.3 0 .6-.2.6-.4l.9-4.8c.1-.3.3-.5.6-.4l4.3.8c.2 0 .4.3.4.6l-.9 4.7c-.1.3.1.6.4.6l4.8.9c.2.1.4.3.4.6z" class="a"/><path fill-rule="evenodd" d="M196.9 100.1c0 53.3-43.4 96.6-96.8 96.6S3.3 153.4 3.3 100.1 46.7 3.5 100.1 3.5s96.8 43.3 96.8 96.6zm-1.9 0c0-52.2-42.6-94.7-94.9-94.7-52.3 0-94.9 42.5-94.9 94.7s42.6 94.7 94.9 94.7c52.3 0 94.9-42.5 94.9-94.7z" class="a"/><path d="M18.5 97c-.8-.9-1.5-1.8-1.8-2.9q0-.1-.2-.2-1 0-2-.1c-.1 0-.2-.1-.2-.3.1-3.3.6-6.9.8-10.4 0-.2.2-.3.4-.2 2 1.5 1.8 4.3 1.9 6.6 0 .1-.1.2-.2.2-.8.1-1.2 1.2-.2 1.6 1.1.3 1.9-4 1.9-4.9.1-1.4-.3-3.3.7-4.3.1-.1.3-.1.4.1.8 1 .2 2.9 0 4.2-.1 1 0 5.4 1.2 5.2 1-.2.7-1.3 0-1.5-.1-.1-.2-.2-.2-.3.5-2.3.7-5 3-6.2.1-.1.3.1.3.2-.3 3.5-.4 7.1-.9 10.5 0 .1-.1.2-.2.2l-2-.2q-.2 0-.3.1c-.4 1.1-1.2 1.9-2.1 2.6-.1.1-.2.1-.3 0zM180.9 97c-1-.7-1.8-1.5-2.2-2.6q-.1-.1-.2-.1l-2 .2c-.2 0-.3-.1-.3-.2-.5-3.4-.5-7-.9-10.5 0-.1.2-.3.4-.2 2.2 1.2 2.5 3.9 2.9 6.2 0 .1 0 .2-.1.3-.8.2-1 1.3 0 1.5 1.2.2 1.3-4.2 1.2-5.2-.2-1.3-.9-3.2 0-4.2.1-.2.2-.2.3-.1 1 1 .7 2.9.7 4.3 0 .9.8 5.2 2 4.9 1-.4.5-1.5-.2-1.6-.1 0-.2-.1-.2-.2 0-2.3-.1-5.1 1.9-6.6.1-.1.4 0 .4.2.2 3.5.7 7.1.7 10.4 0 .2-.1.3-.2.3q-1 .1-2 .1l-.2.2c-.3 1.1-.9 2-1.7 2.9-.1.1-.2.1-.3 0z" class="a"/></svg>