<svg xmlns="http://www.w3.org/2000/svg" width="100" height="100" version="1.2" viewBox="0 0 1006 1006"><style>.a{fill:#867f37}</style><path fill-rule="evenodd" d="m179.8 308.1-4.8 9.6-10.8-5.4L145 351l10.9 5.4-4.8 9.6-20.5-10.2 1.5-3q1-2.1.2-4.6-.9-2.4-4-5.3-3.2-3-8.7-6.6-5.5-3.6-13.8-8l-16-8.5 18.8-37.7 47 23.3 3.7-7.5zm-29.7 8.3-37.3-18.6-8.4 16.9 7.9 4.1q8.2 4.3 13.7 7.9 5.5 3.6 8.6 6.7 3.2 3.1 4 6.3zM198.3 259q-1.3 6.1-5.4 11.4-4.1 5.6-9.7 8.5-5.5 2.9-11.6 3.3-6.1.5-12.1-1.2-5.9-1.6-10.7-5.3-5.1-3.8-8.2-9.2-3.2-5.3-4.3-11.3-1.1-6 .2-12.1t5.4-11.5q4.1-5.5 9.8-8.4 5.6-2.8 11.7-3.2 6.1-.4 12 1.2 5.9 1.7 10.7 5.3 5 3.8 8.2 9.1 3.2 5.3 4.3 11.3 1.1 6-.3 12.1zm-11.1-10.2q-1-3.7-3.3-6.9-2.3-3.3-5.4-5.6-3.3-2.5-7.1-3.7-3.8-1.3-7.6-1.2-3.8.1-7.2 1.8-3.5 1.7-6.1 5.1-2.7 3.6-3.3 7.5-.6 3.8.4 7.5t3.3 6.9q2.3 3.2 5.4 5.5 3.3 2.5 7.1 3.8 3.8 1.3 7.6 1.3 3.8-.1 7.2-1.8 3.5-1.7 6.1-5.2 2.7-3.5 3.3-7.4.7-3.9-.4-7.6z" class="a"/><path d="M250.7 199.4q-.9 5.3-3.6 10.1-2.7 4.9-6.4 8.4-5 4.6-11 6.4-6 1.7-12.2 1.1-6.1-.7-11.8-3.4-5.6-2.7-9.7-7.1-3.9-4.2-6.2-9.8-2.3-5.5-2.5-11.6-.2-6 2.2-12 2.4-5.9 7.8-11 6.4-5.9 13.7-7.4 7.3-1.6 13.8.8l-2.5 11.2q-3.6-1.5-7-1.3-3.3.2-6 1.6-2.7 1.4-4.8 3.3-3.4 3.2-4.6 6.9-1.3 3.7-.9 7.5t2.1 7.3q1.7 3.5 4.3 6.2 2.8 3.1 6.4 5 3.7 2 7.5 2.5t7.5-.6q3.7-1 6.7-3.8 2.2-2 3.7-4.8 1.6-2.8 2-6.1.4-3.3-.8-6.8l11.3-2.6q1.8 4.7 1 10z" class="a"/><path fill-rule="evenodd" d="M305.8 159.7q-.3 4.5-3.2 8.6-2.9 4.2-7.5 7.2l-25.5 16.9-34.8-52.9 28.2-18.6q3.8-2.5 7.8-2.3 4 .2 7.5 2.3 3.5 2.2 5.7 5.5 2.5 3.8 2.8 8.5.3 4.7-2.3 8.8 5.4-1.7 10.3.1 5 1.7 8.4 6.9 2.9 4.5 2.6 9zm-46.2-4.8 13.7-9.1q1.7-1.1 2.6-2.8.8-1.8.7-3.8-.1-2.1-1.5-4.2-1.3-2-3.1-3-1.7-.9-3.6-.9-1.8 0-3.4 1.1l-14.2 9.3zm33.3 4.8q-.1-2.2-1.3-4-1.4-2-3.2-3.1-1.9-1.1-3.9-1.1t-3.8 1.2L265 163.1l9.1 13.9 15.3-10.1q1.8-1.2 2.8-3.1.9-2 .7-4.1z" class="a"/><path d="m336.3 152.8-11 5.4-28.1-56.7 11.1-5.4z" class="a"/><path fill-rule="evenodd" d="m413.6 136.7-10.2 3.5-3.9-11.5-40.9 13.7 3.9 11.5-10.2 3.4-7.3-21.7 3.2-1.1q2.3-.7 3.4-3 1.1-2.4 1-6.7-.2-4.3-1.5-10.7-1.4-6.5-4.1-15.4l-5.3-17.3 40-13.4 16.7 49.7 7.9-2.7zm-26.8-15.1-13.3-39.5-17.8 5.9 2.7 8.5q2.7 8.9 4 15.3 1.4 6.4 1.4 10.8 0 4.5-1.6 7.3zM497 107.3q-2.5 3.8-7 6.1-4.6 2.2-10.1 2.6l-30.4 2.3-4.8-63.1 33.7-2.5q4.5-.4 7.9 1.7 3.4 2.2 5.4 5.7 2 3.6 2.3 7.6.4 4.5-1.6 8.8-2 4.2-6.3 6.5 5.5 1.2 9 5.1 3.5 4 3.9 10.1.4 5.3-2 9.1zm-38.1-26.6 16.4-1.2q2-.2 3.6-1.3t2.5-3q.9-1.8.7-4.3-.1-2.4-1.2-4.1-1.1-1.7-2.7-2.6-1.6-.8-3.6-.7l-16.9 1.3zm27.6 16.1q-.2-2.4-1.3-4.2-1.1-1.8-2.8-2.8-1.8-1-3.9-.9l-18.8 1.5 1.2 16.6 18.2-1.4q2.3-.2 4-1.4 1.7-1.3 2.7-3.2.9-2 .7-4.2z" class="a"/><path d="m530.8 63.7-1.2 15.2 26.5 2.1-.8 10-26.5-2.2-1.3 16.5 31.5 2.5-.9 10.7-43.8-3.5 5.1-63 43 3.4-.9 10.8zM632.3 70.1l-2.4 10.5-19.7-4.6-12 51.1-11.9-2.8 12-51.1-19.7-4.6 2.5-10.5zM660.6 91.8l-5.7 14.2 24.7 9.9-3.8 9.3-24.7-10-6.1 15.3 29.3 11.8-4 10-40.8-16.4 23.7-58.7 40 16.1-4.1 10z" class="a"/><path fill-rule="evenodd" d="M747.1 138.8q-.7 4-2.6 7.4-2.8 4.6-7.4 7.5-4.6 2.8-9.9 3.2-5.3.4-10.4-2.6l-12.9-7.7-10.8 18.3-10.6-6.3 32.3-54.4 23 13.6q3.8 2.3 6 5.7 2.3 3.4 3.1 7.3.8 4 .2 8zm-11.6-4.4q.2-2.6-.9-4.6-1-2-2.9-3.1l-11.8-7-10.5 17.6 12.3 7.3q1.9 1.2 4.1 1 2.1-.2 4.3-1.7 2.1-1.5 3.6-4.1 1.7-2.8 1.8-5.4zM792.8 157.2l-21.9 63.7-9.8-7.9 5.9-15.6-18.1-14.6-14 8.8-9.8-7.9 58-34.4zm-12.9 6-23.3 14.7 13.6 11z" class="a"/><path d="m861.3 227.3-47.7 41.5-8.1-9.2 20.4-17.7-18.9-21.6-20.3 17.7-8.1-9.3 47.7-41.5 8.1 9.3-19.3 16.8 18.9 21.6 19.2-16.8zM882.8 259l-52.7 35-6.8-10.2 52.7-35.1z" class="a"/><path fill-rule="evenodd" d="M913.2 318.9q-.7 4-3.2 7.2-2.6 3.2-6.1 5-4.1 2-8.8 1.8-4.7-.2-8.5-3.3 1 5.6-1.3 10.2-2.3 4.8-7.8 7.5-4.8 2.4-9.3 1.5-4.4-.8-8.2-4.2-3.8-3.3-6.2-8.2L840.1 309l56.6-28.3 15.1 30.3q2 4 1.4 7.9zm-34.9 5.9-8.5-16.9-14.9 7.5 8.2 16.3q1 2 2.8 3.1 1.8 1.2 4 1.3 2.1.1 4.1-.9 2.2-1.1 3.4-2.8 1.3-1.8 1.6-3.7.2-2-.7-3.9zm22-13.3-7.5-15.1-14.3 7.1 7.3 14.7q1 1.8 2.6 2.9 1.6 1.1 3.7 1.2 2 .1 4.3-1 2.1-1.1 3.3-2.7 1.2-1.6 1.3-3.5.2-1.8-.7-3.6z" class="a"/><path d="m127.2 611.6-66.8-10.9-2.4-11.6 57.2-36.2 2.6 12.6L73.5 592l51.1 6.9zM146.8 663.9l-10.1 3.8-10.9-28.8-14.3 5.4 9.5 24.9-9.3 3.6-9.5-25-15.4 5.9L98 683.3l-10 3.8L72.3 646l59.2-22.4zM177.4 719.8l-9.3 5.3-10.1-17.5-45.5 26-6.1-10.6 45.6-26-10-17.6 9.3-5.3zM184.7 747.2l-11.9 9.5 16.6 20.8-7.8 6.2-16.6-20.8-12.9 10.3 19.7 24.7-8.4 6.7-27.4-34.3 49.5-39.5 26.9 33.8-8.5 6.7z" class="a"/><path fill-rule="evenodd" d="M250.5 810q0 4.1-1.5 7.8-1.4 3.8-4.1 6.7-2.7 2.9-6.2 4.7-3.5 1.8-7.3 2.1-3.7.4-7.3-.9l-5.4 27.3-10-9.1 4.7-24.4-9.1-8.3-14.3 15.6-9.1-8.2 42.6-46.8 20.7 18.9q3.2 2.9 4.8 6.7 1.5 3.8 1.5 7.9zm-12-3.4q-.5-2.3-2.1-3.8l-11-10-13.8 15.1 11.4 10.4q1.7 1.6 3.9 1.7 2.3.2 4.6-.8 2.4-1 4.3-3.1 2-2.2 2.6-4.7.6-2.5.1-4.8zM297.8 835.4l-14.7 65.8-10.6-6.9 4.1-16.1-19.5-12.6-13 10.4-10.7-6.8 53.9-40.6zm-12.1 7.4L264.2 860l14.7 9.4z" class="a"/><path d="m379.6 874.8-24.1 58.4-9.5-3.9-14.3-49.9-15.5 37.6-11.3-4.7 24.1-58.5 9.1 3.8 14.3 51 15.9-38.5zM432.2 924.1q1.6 4 .4 9.6-1.1 4.9-3.7 8-2.6 3.1-6.3 4.6-3.7 1.4-8 1.5-4.4.1-9-.9-4.6-1.1-9-3-4.4-2-8.2-4.7-3.9-2.8-6.9-6.1l7.6-9.2q.6 1 2.3 2.7 1.7 1.7 4.3 3.6 2.6 1.9 5.8 3.5 3.2 1.7 6.7 2.4 4.9 1.1 7.8 0 2.8-1 3.5-4.1.6-2.7-1-4.7-1.7-2-5-4t-7.9-4.4q-5.4-3-8.9-5.9-3.5-2.9-4.7-6.4-1.2-3.6-.2-8.2 1.4-6.4 5.4-10 3.9-3.6 9.6-4.7 5.6-1 11.9.3 4.3 1 8 2.8 3.6 1.8 6.7 4.2 3 2.3 5.3 4.7l-7.5 8.6q-.4-.8-1.8-2.2-1.4-1.4-3.5-2.8-2.1-1.5-4.6-2.8-2.5-1.4-5.3-2-4.9-1.1-7.8.2-2.9 1.2-3.6 4.5-.5 2.5.7 4.4 1.2 1.8 4.1 3.5 2.9 1.8 7.4 4 5.7 2.8 9.7 5.9 4 3.2 5.7 7.1zM530 956.5l-43.9.7L485 894l43.2-.7.1 10.8-30.8.5.3 15.2 26.6-.4.2 9.9-26.7.5.3 16.5 31.6-.6zM604.8 946.3l-13.2 2.2-18.3-19.7-11.2 24.5-13.3 2.2 15.9-34.2-26.8-28.1 13.3-2.2 19.2 20.5L582 886l13.2-2.2-16.4 35.2z" class="a"/><path fill-rule="evenodd" d="M658.9 895.7q-.9 5.4-4.1 9.6-3.1 4.3-8.8 6.2l-14.2 4.8 6.7 20.1-11.6 3.9-20.1-60 25.4-8.5q4.2-1.4 8.2-.9 4 .5 7.6 2.6 3.5 1.9 6.1 5 2.6 3.1 3.9 6.8 1.7 5.1.9 10.4zm-12.7-6.4q-1.1-3.1-3-5-1.8-1.8-4-2.3-2.2-.5-4.3.2l-13 4.4 6.5 19.4 13.5-4.5q2.1-.7 3.4-2.5 1.3-1.7 1.6-4.3.2-2.5-.7-5.4z" class="a"/><path d="m732.7 895.1-38.9 20.3-29.2-56.2 38.2-19.9 5 9.6-27.3 14.2 7 13.6 23.6-12.3 4.6 8.8-23.6 12.3 7.6 14.6 28.1-14.6z" class="a"/><path fill-rule="evenodd" d="m761.5 849.8-9.8 7.3 12.6 17-9.8 7.4-37.8-50.8 22.5-16.7q3.5-2.6 7.5-3.4 4-.8 8 0 4 .9 7.4 3 3.4 2.1 5.8 5.3 2.4 3.2 3.5 7t.6 7.5q-.4 3.8-2.3 7.1l25.8 10.5-10.9 8zm-1.3-18.7q-.6-2.5-2.3-4.8-1.8-2.4-4.1-3.5-2.4-1.1-4.7-1-2.4.1-4.1 1.4l-12 8.9 12.2 16.4 12.4-9.2c1.2-.9 2.1-2.1 2.5-3.5q.6-2.2.1-4.7z" class="a"/><path d="m820.4 827.1-8.9 8.5-43.7-45.7 8.9-8.5zM867.2 774.3l-28 33.9-48.8-40.4 27.5-33.2 8.3 6.9-19.6 23.8 11.7 9.7 17-20.6 7.7 6.4-17 20.5 12.7 10.5 20.2-24.3zM904.7 714l-51.2 7.8 35.2 20.2-6.1 10.7-54.9-31.5 4.9-8.5 52.4-7.6-36.1-20.7 6.1-10.7 54.8 31.4zM933.4 641.9q-.1 5.5-1.8 10.4-2.3 6.4-6.8 10.7-4.5 4.4-10.3 6.7-5.8 2.2-12 2.4-6.3.2-11.9-1.8-5.5-1.9-10-5.7-4.6-3.8-7.6-9.2-3-5.3-3.6-11.6-.6-6.4 1.8-13.4 2.9-8.2 8.7-12.9 5.7-4.8 12.5-5.7l3 11.1q-3.9.3-6.7 2.1-2.8 1.7-4.6 4.2-1.8 2.5-2.7 5.2-1.6 4.4-1 8.2.7 3.9 2.8 7.1 2 3.2 5.2 5.4 3.2 2.3 6.7 3.6 3.9 1.4 8 1.4t7.8-1.3q3.6-1.3 6.4-4 2.8-2.6 4.1-6.5 1-2.7 1.1-5.9.1-3.2-1.1-6.4-1.1-3.1-3.9-5.6l8.9-7.5q3.8 3.3 5.5 8.4 1.7 5.1 1.5 10.6zM953.1 560.4l-7.7 43.2-62.3-11.1 7.5-42.4 10.7 1.9-5.4 30.3 15 2.7 4.6-26.2 9.9 1.7-4.7 26.2 16.2 2.9 5.6-31.1z" class="a"/><path fill-rule="evenodd" d="M854.5 504c0 193.8-157.7 351.5-351.5 351.5S151.5 697.8 151.5 504 309.2 152.5 503 152.5 854.5 310.2 854.5 504zM681 340.3c-44.9-53.5-139.8-76.2-182.3-79.4-68.9-5.4-132.5 24.3-168.8 72.6-36.4 48.3-56.2 154.3-42.3 171 14.1 16.8 46.8 12.4 68.3-5.8s29.3-73.3 53.1-86c23.9-12.6 104.3-10.5 134.9 5.7 3.5 1.8 7.1 3.8 10.8 5.8 4.3 2.5 7 7 7.1 11.8l2.1 87.5c0 1.5-1.2 2.7-2.7 2.7-2.2 0-4.1 1.8-4.1 4.1v23.9c0 2.4 2 4.5 4.4 4.4 1.4 0 2.4 1.1 2.4 2.4l-3.2 74.4c0 1.9-2.1 3-3.7 2.2-8.2-4.5-30.3-15.6-60.5-25.3-1.1-.3-1.6-1.5-1.2-2.6.9-2.3-.4-4.8-2.7-5.3l-27.1-6.4c-1.9-.4-3.8.7-4.6 2.5-.6 1.5-2.3 2.3-3.9 2.1-13.5-2.6-71.8-12-81-19.1-10.5-8.2-13-72.8-39.9-58.8-26.9 14.1-14 38.8-7.8 46 6.2 7.1 16.3 24 21.3 26.2 4.5 2 83.5 20.1 100.6 23.8 1.4.3 2.1 1.8 1.6 3-.9 1.9.4 4.1 2.3 4.8l26.2 8.4c2.1.6 4.4-.4 5-2.6.3-1.2 1.5-1.8 2.7-1.5 8.4 2.6 40.6 13.1 62.1 26 24.8 14.8 25.3 20.3 35 31.3 9.6 10.9 34.6 44.7 45.5 32.5 15.8-17.7-50.3-54.2-48.9-75.9.9-13.7 3.7-73.7 4.3-85.9.1-1.2 1.1-2.2 2.3-2.2 2.5.1 4.6-2.3 4.6-4.8l.5-23.8c0-2.7-2.1-5.2-4.8-5.3-1.6-.1-2.9-1.4-2.9-2.9l.6-75.7c0-1.6 1.8-2.6 3.2-1.8 20.9 11.8 42.6 23 61.8 28.1 34.1 9 61 12 70.7 5.9 9.6-6 3.7-84.7-41-138zm-78.2 391.3c-8.2-6.5-16.4-15.8-24.9-26.1-1.8-2.1-3.3-3.9-4.4-5.2-2.5-2.7-4.4-5.2-6-7.3-5.1-6.5-8.5-10.8-25.4-20.9-15.5-9.2-37.9-17.5-50.4-21.7-.4-.2-.9-.1-1.3.1-2.7 1.3-5.7 2.1-8.8 2.1-2.1 0-4.1-.3-6.1-.9l-26.1-8.4c-4.6-1.5-8.5-4.6-10.9-8.7-.2-.4-.6-.7-1-.8-11.7-2.6-29.5-6.7-45.9-10.5-13.5-3.2-23.1-5.5-30-7.1-.9-.2-1.7.3-2 1.1-2.4 9.2-4.3 18.7-5 24.2-1.6 11.7-10.4 18.1-14.6 27.3-4.2 9.1 13 17.3 25 22.4 12 5 32.1 25.3 53 27.4 20.9 2 49.4 17.6 57.8 19 8.3 1.5 44.8-.6 60.4-.9 15.6-.3 61.2 2.6 66.8-2.6.7-.7.6-1.9-.2-2.5zM696 570.8c-.8-.8-2.2-.8-3.1.1-5.2 4.9-10.9 9.1-17.1 12.3h-.1c-2.6 1.3-5.5 2-8.4 2-4.5 0-8.9-1.6-12.3-4.6q-.9-.8-1.9-1.8c-6.1-5.5-14.4-13-31.9-14.3-2.6-.2-5.2-1-7.4-2.3-2.9-1.7-6.6-.9-8.2 2q-.8 1.3-1.8 2.5c-1.8 2.2-2.8 5-2.9 7.8-1 20-2.6 54.3-3.5 69-.1 2.7.6 5.4 2.2 7.6.9 1.2 2 2.6 3.5 4.4 4.2 4.9 9.9 10.4 15.4 15.8 8.3 8 16.9 16.3 22.5 24.5q3 4.2 4.7 8.1c1 2.1 2.9 3.7 5.2 3.8q1.1.1 2-.2c3.3-.9 4.4-7.7 5.1-25.6 1.1-26.2 14.1-46.1 19.9-57.8 6.9-13.9 20.9-13.9 23.8-30.5 1.4-8.3.1-17.3-5.7-22.8zm16.5-67.5c-34.1-12.3-81.7-14.7-109.1-14.9-1.1 0-1.9.8-1.9 1.8l-.1 17.8c0 1 .7 1.8 1.7 1.8 7.3.4 14.8.9 20.9 1.5 1.3.1 2.3 1.2 2.4 2.5 1.3 17.2-3.2 28.4-5.4 32.9-.5 1 .2 2.2 1.3 2.3 24.9 1.8 36.4 14.1 43 19.9.9.9 2.3 1 3.4.4 25.8-13 41.6-51.5 45.6-62.2.6-1.5-.2-3.2-1.8-3.8zm-170.9 50.9v-23.9c0-5.4 2.2-10.3 5.7-13.8.5-.5.8-1.2.8-2l-.8-34.9c0-1.2-.8-2.2-1.8-2.6h-.3c-16.3-6-46.8-17.1-54.5-17.1-8.2 0-26.5 16.2-47.7 35-5.4 4.7-10.9 9.6-17 14.9-18.1 15.8-35 23-47.6 26.1-1.6.4-2.5 2.1-2 3.6 2.1 5.7 3.8 11.7 5.4 17.2 1.2 4.2 2.8 10.1 4.2 13.6.3.7.9 1.3 1.6 1.6 3.4 1.2 10.5 3.4 25.2 6.5 13.9 3 28.9 5.7 38.9 7.4q.2.1.4.1c.7.1 1.4-.1 2-.4 3.1-2 6.7-3.1 10.5-3.1q2.3 0 4.4.5l27.1 6.4c5.5 1.3 10.2 4.9 12.8 9.9.4.6.9 1.1 1.6 1.4 12.3 4.3 23 8.7 31.8 12.5 1.8.9 3.8-.4 3.9-2.3l1.7-40.8c0-.8-.3-1.5-.8-2-3.4-3.6-5.5-8.4-5.5-13.8zm5.1-98.9-.4-15.7c0-1.4-.8-2.7-2-3.3-2.8-1.6-5.3-3-7.6-4.2-13.7-7.2-43.1-12-73.4-12-25.8 0-41.4 3.4-47 6.4-7.9 4.2-15.8 22.5-22.1 37.2-7.6 17.7-15.5 36-28.2 46.8l-1.2 1c-1.7 1.4-1.9 4-.4 5.7q1.2 1.4 2.5 3c.9 1.2 2.4 1.8 3.9 1.6 10.6-2.1 26.8-7.8 45-23.7 6-5.3 11.5-10.1 16.9-14.8 27.3-24.3 43.9-39 58-39h.1c8.6.1 27 6.2 50.6 14.7 2.6 1 5.4-1 5.3-3.7zm15.1-121.1-4.2 22c-.2 1.5-1.6 2.4-3 2.1l-24.7-4.6c-1.4-.2-2.8.7-3.1 2.1l-4.5 24.8c-.3 1.4-1.7 2.4-3.1 2l-22-4c-1.4-.3-2.4-1.7-2.1-3.1l4.6-24.7c.3-1.4-.7-2.8-2.1-3l-24.7-4.7c-1.4-.3-2.3-1.5-2.1-3l4.1-22c.2-1.4 1.6-2.4 3-2.1l24.8 4.6c1.3.3 2.7-.6 3-2.1l4.6-24.7c.3-1.4 1.7-2.3 3.1-2l21.9 4c1.4.3 2.4 1.6 2.1 3.1l-4.5 24.6c-.3 1.5.7 2.8 2 3.1l24.7 4.6c1.5.3 2.4 1.6 2.2 3z" class="a"/><path fill-rule="evenodd" d="M1003 504c0 275.7-224.3 500-500 500S3 779.7 3 504 227.3 4 503 4s500 224.3 500 500zm-9.9 0c0-270.2-219.9-490.1-490.1-490.1C232.8 13.9 12.9 233.8 12.9 504c0 270.2 219.9 490.1 490.1 490.1 270.2 0 490.1-219.9 490.1-490.1z" class="a"/><path d="M81.4 488c-4.1-4.5-7.5-9.2-8.9-14.9-.1-.6-.6-.9-1.1-1q-5.2-.4-10.3-.8c-.6 0-1.2-.6-1.1-1.2.2-17.4 2.8-36.1 3.9-54 0-1 1.2-1.5 2-.9 10.5 7.8 9.6 21.9 9.9 33.9.1.7-.4 1.2-1.1 1.3-3.8.5-6 6.1-1 7.9 5.9 2 10-20.4 10.1-25.4.2-6.8-1.6-17 3.6-21.9.5-.5 1.4-.4 1.8.2 4.3 5.6 1 15.4.1 22.1-.7 5-.1 27.7 6 26.7 5.3-1 4-6.9.2-7.9-.6-.2-1-.9-.9-1.5 2.3-11.8 3.6-25.9 15.2-32 .9-.4 1.9.3 1.8 1.3-1.7 17.8-2.1 36.7-4.5 53.9-.1.6-.7 1.1-1.4 1q-5.1-.4-10.3-.8c-.5 0-1 .3-1.2.8-2.2 5.4-6.4 9.6-11.1 13.3-.5.4-1.3.4-1.7-.1zM920.1 488.1c-4.7-3.7-8.8-7.9-11.1-13.3-.2-.5-.7-.8-1.2-.8q-5.2.4-10.3.8c-.7.1-1.2-.4-1.3-1-2.5-17.2-2.9-36.1-4.6-53.9-.1-1 1-1.7 1.8-1.3 11.6 6.1 12.9 20.2 15.2 32 .1.6-.3 1.3-.9 1.5-3.8 1-5.1 6.9.2 7.9 6.1 1 6.7-21.7 6.1-26.7-.9-6.7-4.3-16.5 0-22.1.5-.6 1.3-.7 1.9-.2 5.1 4.9 3.3 15.1 3.5 21.9.1 5 4.2 27.4 10.1 25.4 5.1-1.8 2.8-7.4-1-7.9-.7-.1-1.1-.6-1.1-1.3.3-12-.6-26.1 10-33.9.7-.6 1.9-.1 1.9.9 1.1 17.9 3.7 36.6 4 54 0 .6-.5 1.2-1.2 1.2q-5.1.4-10.3.8c-.5.1-1 .4-1.1 1-1.3 5.7-4.8 10.4-8.9 14.9-.4.5-1.2.5-1.7.1z" class="a"/></svg>