<svg xmlns="http://www.w3.org/2000/svg" aria-hidden="true" style="position:absolute;width:0;height:0;overflow:hidden">
    <defs>
        <symbol id="icon-telegram" viewBox="0 0 32 32">
            <path d="M27.613 4.873s2.59-1.01 2.374 1.443c-.072 1.01-.719 4.545-1.223 8.369l-1.727 11.326s-.144 1.659-1.439 1.948S22.36 26.949 22 26.66c-.288-.216-5.396-3.463-7.195-5.05-.504-.433-1.079-1.299.072-2.309l7.555-7.214c.863-.866 1.727-2.886-1.871-.433l-10.073 6.854s-1.151.721-3.31.072l-4.677-1.443s-1.727-1.082 1.223-2.164c7.195-3.391 16.045-6.854 23.887-10.1z"/>
        </symbol>
        <symbol id="icon-teddy" viewBox="-5 -6 42 42">
            <path d="M28.456 11.3h-4.493c.213-1.252.132-2.569-.245-3.939a3.786 3.786 0 0 0 2.574-3.581 3.775 3.775 0 0 0-6.598-2.505c-2.353-1.699-5.032-1.699-7.386 0A3.778 3.778 0 0 0 9.485.005 3.78 3.78 0 0 0 5.71 3.78a3.785 3.785 0 0 0 2.574 3.581c-.377 1.37-.458 2.687-.245 3.939H3.546c-1.852 0-3.358 1.507-3.358 3.358s1.507 3.359 3.358 3.359h4.809v1.457c-2.45.585-4.3 3.142-4.3 6.2C4.055 29.162 6.462 32 9.421 32c1.841 0 3.522-1.098 4.499-2.868a7.666 7.666 0 0 0 4.163 0C19.06 30.903 20.741 32 22.582 32c2.959 0 5.366-2.838 5.366-6.326 0-3.058-1.85-5.615-4.3-6.2v-1.457h4.809c1.852 0 3.358-1.507 3.358-3.359S30.308 11.3 28.457 11.3zM9.42 29.139c-1.381 0-2.505-1.124-2.505-2.505s1.124-2.505 2.505-2.505c1.381 0 2.505 1.124 2.505 2.505s-1.124 2.505-2.505 2.505zm7.932-2.019a5.524 5.524 0 0 1-2.704 0c.372-1.863.003-3.927-1.085-5.476 1.508-1.381 3.305-1.436 4.874 0-1.105 1.573-1.45 3.645-1.085 5.476zm2.231-14.764a4.322 4.322 0 0 1-7.156.015 1.066 1.066 0 1 1 1.762-1.202c.195.286.452.517.744.681v-1.033a1.066 1.066 0 1 1 2.132 0v1.033c.295-.165.553-.398.749-.688a1.067 1.067 0 1 1 1.767 1.195zm5.502 14.278c0 1.381-1.124 2.505-2.505 2.505s-2.505-1.124-2.505-2.505 1.124-2.505 2.505-2.505a2.508 2.508 0 0 1 2.505 2.505z"/>
        </symbol>
        <symbol id="icon-tank" viewBox="0 -3 32 32">
            <path d="M30.824 12.302a1.175 1.175 0 1 0 0-2.352H24.03v-.589c0-.65-.526-1.176-1.176-1.176H9.398c-.65 0-1.176.526-1.176 1.176v3.592H4.489c-.396 0-.766.199-.983.531L.191 18.531a1.175 1.175 0 0 0 .983 1.821h.096a3.513 3.513 0 0 0 3.508 3.46c.937 0 1.786-.374 2.417-.974.63.601 1.478.974 2.417.974s1.786-.374 2.417-.974c.63.601 1.478.974 2.417.974s1.786-.374 2.417-.974c.631.601 1.479.974 2.417.974s1.785-.374 2.417-.974a3.492 3.492 0 0 0 2.417.974 3.514 3.514 0 0 0 3.511-3.511c0-.047-.013-.089-.015-.136a1.15 1.15 0 0 0 .362-.343l3.315-5.047a1.175 1.175 0 0 0-.983-1.822h-6.271v-.652l6.794-.001zM4.779 21.463c-.64 0-1.161-.522-1.161-1.159a1.162 1.162 0 0 1 2.321 0c0 .639-.521 1.159-1.16 1.159zm4.832 0c-.64 0-1.161-.522-1.161-1.159a1.162 1.162 0 0 1 2.321 0 1.16 1.16 0 0 1-1.16 1.159zm4.833 0c-.64 0-1.161-.522-1.161-1.159a1.162 1.162 0 0 1 2.321 0 1.16 1.16 0 0 1-1.16 1.159zm4.832 0c-.639 0-1.16-.522-1.16-1.159a1.16 1.16 0 1 1 1.16 1.159zm4.832 0c-.64 0-1.16-.522-1.16-1.159a1.16 1.16 0 1 1 1.16 1.159z"/>
        </symbol>
        <symbol id="icon-instagram" viewBox="0 0 32 32">
            <path d="M16 0c-4.347 0-4.889.02-6.596.096C7.7.176 6.54.444 5.52.84c-1.052.408-1.945.956-2.835 1.845S1.246 4.466.84 5.52C.444 6.54.175 7.7.096 9.404.016 11.111 0 11.653 0 16s.02 4.889.096 6.596c.08 1.703.348 2.864.744 3.884a7.854 7.854 0 0 0 1.845 2.835A7.807 7.807 0 0 0 5.52 31.16c1.021.395 2.181.665 3.884.744 1.707.08 2.249.096 6.596.096s4.889-.02 6.596-.096c1.703-.08 2.864-.349 3.884-.744a7.867 7.867 0 0 0 2.835-1.845 7.799 7.799 0 0 0 1.845-2.835c.395-1.02.665-2.181.744-3.884.08-1.707.096-2.249.096-6.596s-.02-4.889-.096-6.596c-.08-1.703-.349-2.865-.744-3.884a7.859 7.859 0 0 0-1.845-2.835A7.786 7.786 0 0 0 26.48.84C25.46.444 24.299.175 22.596.096 20.889.016 20.347 0 16 0zm0 2.88c4.271 0 4.78.021 6.467.095 1.56.073 2.407.332 2.969.553.749.289 1.28.636 1.843 1.195a4.95 4.95 0 0 1 1.195 1.841c.219.563.48 1.409.551 2.969.076 1.688.093 2.195.093 6.467s-.02 4.78-.099 6.467c-.081 1.56-.341 2.407-.561 2.969-.299.749-.639 1.28-1.199 1.843a5.002 5.002 0 0 1-1.84 1.195c-.56.219-1.42.48-2.98.551-1.699.076-2.199.093-6.479.093-4.281 0-4.781-.02-6.479-.099-1.561-.081-2.421-.341-2.981-.561-.759-.299-1.28-.639-1.839-1.199a4.867 4.867 0 0 1-1.2-1.84c-.22-.56-.479-1.42-.56-2.98-.06-1.68-.081-2.199-.081-6.459 0-4.261.021-4.781.081-6.481.081-1.56.34-2.419.56-2.979.28-.76.639-1.28 1.2-1.841.559-.559 1.08-.919 1.839-1.197.56-.221 1.401-.481 2.961-.561 1.7-.06 2.2-.08 6.479-.08zm0 4.904A8.215 8.215 0 0 0 7.784 16c0 4.54 3.68 8.216 8.216 8.216 4.54 0 8.216-3.68 8.216-8.216 0-4.54-3.68-8.216-8.216-8.216zm0 13.549c-2.947 0-5.333-2.387-5.333-5.333s2.387-5.333 5.333-5.333 5.333 2.387 5.333 5.333-2.387 5.333-5.333 5.333zM26.461 7.46a1.921 1.921 0 0 1-3.84 0 1.92 1.92 0 0 1 3.84 0z"/>
        </symbol>
        <symbol id="icon-mobile" viewBox="0 0 48 48">
            <path d="M6 44c0 2.21 1.79 4 4 4h27c2.21 0 4-1.79 4-4V4c0-2.21-1.79-4-4-4H10C7.79 0 6 1.79 6 4v40zm7.2-39h20.6c1.22 0 2.2.98 2.2 2.2v24.6c0 1.22-.98 2.2-2.2 2.2H13.2c-1.22 0-2.2-.98-2.2-2.2V7.2c0-1.22.98-2.2 2.2-2.2zM21 40.5a2.5 2.5 0 0 1 5 0 2.5 2.5 0 0 1-5 0z"/>
        </symbol>
        <symbol id="icon-aid" viewBox="-6 -4 44 44">
            <path d="M28 8h-6V4c0-1.1-.9-2-2-2h-8c-1.1 0-2 .9-2 2v4H4c-2.2 0-4 1.8-4 4v16c0 2.2 1.8 4 4 4h24c2.2 0 4-1.8 4-4V12c0-2.2-1.8-4-4-4zM12 4h8v4h-8V4zm12 18h-6v6h-4v-6H8v-4h6v-6h4v6h6v4z"/>
        </symbol>
        <symbol id="icon-target" viewBox="-4 -4 42 42">
            <path d="M32 14h-3.154C27.982 8.43 23.57 4.018 18 3.154V0h-4v3.154C8.43 4.018 4.018 8.43 3.154 14H0v4h3.154C4.018 23.57 8.43 27.982 14 28.846V32h4v-3.154c5.57-.864 9.982-5.276 10.846-10.846H32v-4zm-7.224 0h-3.118A6.014 6.014 0 0 0 18 10.342V7.224A9.03 9.03 0 0 1 24.776 14zM16 18a2 2 0 1 1-.001-3.999A2 2 0 0 1 16 18zM14 7.224v3.118A6.014 6.014 0 0 0 10.342 14H7.224A9.03 9.03 0 0 1 14 7.224zM7.224 18h3.118A6.014 6.014 0 0 0 14 21.658v3.118A9.03 9.03 0 0 1 7.224 18zM18 24.776v-3.118A6.014 6.014 0 0 0 21.658 18h3.118A9.03 9.03 0 0 1 18 24.776z"/>
        </symbol>
        <symbol id="icon-cross" viewBox="10 0 32 32">
            <path d="M31.708 25.708 22 16l9.708-9.708a1 1 0 0 0 0-1.414L27.122.292a1 1 0 0 0-1.414-.001L16 9.999 6.292.291a.998.998 0 0 0-1.414.001L.292 4.878a1 1 0 0 0 0 1.414L10 16 .292 25.708a.999.999 0 0 0 0 1.414l4.586 4.586a1 1 0 0 0 1.414 0L16 22l9.708 9.708a1 1 0 0 0 1.414 0l4.586-4.586a.999.999 0 0 0 0-1.414z"/>
        </symbol>
        <symbol id="icon-menu" viewBox="0 0 32 32">
            <path d="M2 6h28v6H2zm0 8h28v6H2zm0 8h28v6H2z"/>
        </symbol>
        <symbol id="icon-graduation" viewBox="0 0 36 28">
            <path d="M27.719 13.062 28 17.999c.125 2.203-4.484 4-10 4s-10.125-1.797-10-4l.281-4.937 8.969 2.828c.25.078.5.109.75.109s.5-.031.75-.109zM36 8a.522.522 0 0 1-.344.484l-17.5 5.5C18.093 14 18.047 14 18 14s-.094 0-.156-.016L7.657 10.765c-.891.703-1.516 2.422-1.641 4.531.594.344.984.969.984 1.703a1.99 1.99 0 0 1-.906 1.672L7 25.437a.513.513 0 0 1-.5.563h-3a.512.512 0 0 1-.5-.563l.906-6.766A1.99 1.99 0 0 1 3 16.999c0-.75.422-1.391 1.016-1.734.094-1.828.562-3.797 1.531-5.156L.344 8.484C.141 8.406 0 8.218 0 8s.141-.406.344-.484l17.5-5.5C17.907 2 17.953 2 18 2s.094 0 .156.016l17.5 5.5A.523.523 0 0 1 36 8z"/>
        </symbol>
        <symbol id="icon-mail" viewBox="0 0 20 20">
            <path d="M18 2c1.105 0 2 0.895 2 2v0 12c0 1.105-0.895 2-2 2v0h-16c-1.105 0-2-0.895-2-2v0-12c0-1.1 0.9-2 2-2h16zM13.63 11.1l6.37 4.9v-2l-5.12-3.9 5.12-4.1v-2l-10 8-10-8v2l5.12 4.1-5.12 3.9v2l6.37-4.9 3.63 2.9 3.63-2.9z"></path>
        </symbol>
        <symbol id="icon-facebook" viewBox="0 0 32 32">
            <path d="M21.328 5.312h2.923v-5.088c-1.232-0.143-2.66-0.224-4.108-0.224-0.052 0-0.104 0-0.156 0l0.008-0c-4.213 0-7.099 2.65-7.099 7.52v4.48h-4.646v5.688h4.646v14.312h5.699v-14.31h4.459l0.707-5.688h-5.168v-3.922c0-1.643 0.443-2.768 2.734-2.768z"></path>
        </symbol>
    </defs>
</svg>