<svg class="svg-icon" style="width: 1em;height: 1em;vertical-align: middle;fill: currentColor;overflow: hidden;" viewBox="0 0 1024 1024" version="1.1" xmlns="http://www.w3.org/2000/svg"><path d="M784 792c0-32.23-13.36-61.84-36.26-81.46 4.13-17.88 2.62-38.5-4.51-59.36-8.61-25.19-24.57-49.33-46.14-69.78-10.94-10.38-22.9-19.34-35.4-26.58C718.73 512.5 752 450.4 752 384c0-36.01-9.85-71.33-28.62-103.03C741.53 264.46 752 241.13 752 216c0-29.69-14.78-55.99-37.37-71.93-0.88-0.03-1.75-0.07-2.63-0.07-20.85 0-39.62 8.87-52.76 23.03C676.71 176.66 688 195.1 688 216c0 19.48-9.9 37.27-26.49 47.59a15.997 15.997 0 0 0-4.71 22.69c20.41 29.5 31.2 63.29 31.2 97.72 0 63.9-37 123.45-98.99 159.29-5.4 3.12-8.49 9.09-7.93 15.29 0.56 6.21 4.68 11.52 10.54 13.62 18.14 6.49 35.92 17.7 51.44 32.41 34.51 32.72 51.02 77.22 39.26 105.8a15.996 15.996 0 0 0 5.98 19.44C707.85 742.77 720 766.58 720 792c0 34.49-21.83 64.23-51.9 70.71-2.4 0.52-4.57 1.56-6.41 2.98 17.79 6.33 38.09 10.85 59.86 12.88 4.69 0.94 9.52 1.44 14.45 1.44 1.08 0 2.15-0.03 3.22-0.08C766.11 861.47 784 828.96 784 792z m-66.13-96.72c0.2-3.68 0.19-7.45-0.02-11.27 0.31 3.88 0.33 7.64 0.02 11.27z" fill="#009986" opacity=".3" /><path d="M777.12 716.51c14.07-34.2-2.48-85.03-43.05-123.5-17.72-16.81-37.55-28.89-57.06-35.87C741.51 519.85 784 456.23 784 384c0-39.06-12.43-75.6-34.04-106.82C770.39 264.47 784 241.83 784 216c0-39.76-32.24-72-72-72-32.3 0-59.63 21.27-68.76 50.57C613 182.64 579.39 176 544 176s-69 6.64-99.24 18.57C435.63 165.27 408.3 144 376 144c-39.76 0-72 32.24-72 72 0 25.83 13.61 48.47 34.04 61.18C316.43 308.4 304 344.94 304 384c0 71.95 42.16 135.37 106.24 172.72-19.89 6.91-40.17 19.14-58.26 36.29-40.98 38.86-57.44 90.31-42.61 124.52C286.92 733.11 272 760.64 272 792c0 48.6 35.82 88 80 88 5.73 0 11.32-0.67 16.7-1.93 52.65-5.86 96.15-26.25 114.85-51.41 18.65 3.78 39.05 5.33 60.44 5.33 20.53 0 40.16-1.43 58.2-4.89 19.46 25.72 64.85 46.37 119.35 51.45 4.69 0.94 9.52 1.44 14.45 1.44 44.18 0 80-39.4 80-88 0.01-32.05-15.58-60.1-38.87-75.48z" fill="#009986" opacity=".3" /><path d="M406.92 530.81C430.88 549.63 462.52 560 496 560s65.12-10.37 89.08-29.19C610.18 511.09 624 484.52 624 456s-13.82-55.09-38.92-74.81C561.12 362.37 529.48 352 496 352s-65.12 10.37-89.08 29.19C381.82 400.91 368 427.48 368 456s13.82 55.09 38.92 74.81zM496 384c52.93 0 96 32.3 96 72s-43.07 72-96 72-96-32.3-96-72 43.07-72 96-72z" fill="#009986" /><path d="M440.55 498.96C456.77 507.49 475.94 512 496 512s39.23-4.51 55.45-13.03c7.82-4.11 10.83-13.79 6.72-21.61s-13.79-10.83-21.61-6.72c-7.36 3.87-15.67 6.58-24.55 8.06v-32.07c18.64-3.29 32-12.18 32-22.63 0-13.25-21.49-24-48-24s-48 10.75-48 24c0 10.45 13.36 19.33 32 22.63v32.07c-8.88-1.48-17.2-4.19-24.56-8.06-7.82-4.11-17.5-1.11-21.61 6.72-4.12 7.82-1.11 17.49 6.71 21.6z" fill="#009986" /><path d="M783.96 789.17c-0.01-0.44-0.03-0.87-0.05-1.3-0.02-0.48-0.03-0.96-0.06-1.44-0.03-0.6-0.07-1.21-0.11-1.81-0.02-0.28-0.03-0.55-0.05-0.83-0.05-0.76-0.12-1.53-0.19-2.29-0.01-0.07-0.01-0.13-0.02-0.2-2.61-28.02-15.42-53.34-35.75-70.76 4.13-17.88 2.62-38.5-4.51-59.36-8.61-25.19-24.57-49.33-46.14-69.78-10.94-10.38-22.9-19.34-35.4-26.58l0.01-0.01c1.35-1 2.68-2.03 4.01-3.06 8.29-6.41 16.05-13.26 23.25-20.48l0.68-0.68c1.06-1.07 2.11-2.15 3.15-3.24 0.49-0.51 0.97-1.02 1.45-1.54 0.78-0.84 1.56-1.68 2.33-2.52 0.81-0.89 1.61-1.78 2.4-2.68l1.32-1.5c29.24-33.71 46.78-73.72 50.8-116.2 0.02-0.18 0.04-0.37 0.05-0.55 0.16-1.71 0.29-3.42 0.4-5.14 0.02-0.37 0.05-0.73 0.08-1.1 0.1-1.59 0.17-3.18 0.22-4.77l0.06-1.33c0.06-2 0.09-4 0.09-6 0-1.65-0.03-3.29-0.07-4.94l-0.03-1.2c-0.05-1.46-0.11-2.91-0.18-4.37l-0.12-2.06c-0.05-0.74-0.1-1.49-0.16-2.23-2.3-31.19-11.87-61.12-28-88.3C741.55 264.4 752 241.1 752 216c0-48.52-39.48-88-88-88-19.15 0-37.35 6.04-52.65 17.48-10.27 7.68-18.78 17.62-24.85 28.86a281.207 281.207 0 0 0-32.8-8.65c-0.12-0.02-0.24-0.05-0.36-0.08-1.37-0.27-2.75-0.53-4.13-0.79-0.68-0.12-1.36-0.25-2.04-0.37-1.04-0.18-2.09-0.36-3.14-0.53-1.02-0.17-2.03-0.33-3.05-0.49-0.84-0.13-1.68-0.25-2.52-0.37-1.22-0.18-2.44-0.35-3.67-0.51-0.71-0.09-1.43-0.19-2.14-0.27-1.34-0.17-2.69-0.33-4.03-0.47l-1.94-0.21c-1.4-0.15-2.81-0.28-4.22-0.4-0.62-0.06-1.23-0.11-1.85-0.16-1.43-0.12-2.86-0.22-4.3-0.32-0.61-0.04-1.22-0.09-1.83-0.13-1.44-0.09-2.89-0.16-4.33-0.23l-1.83-0.09c-1.5-0.06-2.99-0.1-4.49-0.14-0.56-0.01-1.11-0.04-1.67-0.05-2.04-0.04-4.09-0.07-6.14-0.07s-4.1 0.02-6.14 0.07c-0.56 0.01-1.11 0.03-1.67 0.05-1.5 0.04-3 0.08-4.49 0.14l-1.83 0.09c-1.45 0.07-2.89 0.14-4.33 0.23-0.61 0.04-1.22 0.08-1.83 0.13-1.44 0.1-2.87 0.2-4.3 0.32-0.62 0.05-1.23 0.11-1.85 0.16-1.41 0.12-2.82 0.26-4.22 0.4l-1.94 0.21c-1.35 0.15-2.69 0.31-4.03 0.47l-2.14 0.27c-1.22 0.16-2.45 0.33-3.67 0.51-0.84 0.12-1.68 0.25-2.52 0.37-1.02 0.16-2.03 0.32-3.05 0.49-1.05 0.17-2.09 0.35-3.14 0.53-0.68 0.12-1.36 0.25-2.04 0.37-1.38 0.25-2.76 0.51-4.13 0.79-0.12 0.02-0.24 0.05-0.36 0.08a281.207 281.207 0 0 0-32.8 8.65c-6.07-11.24-14.59-21.18-24.85-28.86C365.35 134.04 347.15 128 328 128c-48.52 0-88 39.48-88 88 0 25.1 10.45 48.4 28.56 64.91-16.12 27.18-25.69 57.11-28 88.3-0.06 0.74-0.11 1.48-0.16 2.23-0.04 0.69-0.09 1.37-0.12 2.06-0.08 1.45-0.14 2.91-0.18 4.37l-0.03 1.2c-0.04 1.64-0.07 3.29-0.07 4.94 0 2 0.03 3.99 0.09 5.99 0.01 0.41 0.04 0.83 0.05 1.24 0.06 1.62 0.13 3.25 0.23 4.86 0.02 0.31 0.04 0.62 0.07 0.93 0.12 1.78 0.25 3.55 0.42 5.32l0.03 0.29c4.14 44.37 23.02 86.04 54.57 120.68 0.47 0.52 0.95 1.03 1.43 1.55 0.8 0.86 1.6 1.72 2.42 2.58 0.83 0.87 1.67 1.73 2.51 2.59 0.48 0.48 0.95 0.96 1.43 1.44 1.08 1.08 2.18 2.16 3.29 3.22l0.77 0.74c1.27 1.21 2.55 2.41 3.85 3.59 0.12 0.11 0.25 0.22 0.37 0.33 1.39 1.26 2.79 2.51 4.21 3.74 0.03 0.03 0.06 0.05 0.08 0.08l0.21 0.18c1.4 1.21 2.8 2.4 4.23 3.58 0.23 0.19 0.47 0.38 0.71 0.57 1.28 1.05 2.57 2.1 3.88 3.13 1.09 0.86 2.2 1.7 3.3 2.54 0.44 0.33 0.87 0.68 1.31 1.01-12.89 7.35-25.22 16.52-36.49 27.22-40.89 38.77-60.34 90.57-50.31 130.57-18.12 16.26-29.99 39-33.53 64.11l-0.03 0.22c-0.1 0.74-0.2 1.47-0.29 2.21-0.03 0.22-0.05 0.45-0.08 0.67-0.07 0.63-0.14 1.26-0.2 1.89l-0.09 1.02c-0.05 0.54-0.09 1.09-0.13 1.63-0.03 0.44-0.06 0.89-0.08 1.33-0.03 0.46-0.06 0.92-0.08 1.38-0.03 0.56-0.05 1.13-0.06 1.7-0.01 0.36-0.03 0.71-0.04 1.07-0.02 0.93-0.04 1.86-0.04 2.8 0 57.35 43.07 104 96 104a88.75 88.75 0 0 0 19.38-2.12h0.03c2.03-0.23 4.05-0.49 6.06-0.77 0.6-0.08 1.2-0.17 1.8-0.25 1.64-0.23 3.27-0.48 4.89-0.74 0.64-0.1 1.27-0.21 1.91-0.31 1.56-0.26 3.12-0.54 4.67-0.83l2.82-0.54c0.86-0.17 1.71-0.35 2.57-0.52 2.42-0.5 4.83-1.03 7.21-1.59 0.01 0 0.03-0.01 0.04-0.01 24.68-5.83 47-14.87 64.74-26.42 8.48-5.53 15.72-11.5 21.67-17.8 0.04 0.01 0.09 0.01 0.14 0.02 1.96 0.32 3.93 0.62 5.94 0.89l0.25 0.03c4.09 0.56 8.27 1.05 12.56 1.45 0.05 0 0.1 0.01 0.14 0.01 2.06 0.19 4.15 0.36 6.27 0.52 0.2 0.01 0.39 0.03 0.59 0.04 2.04 0.15 4.11 0.28 6.2 0.39 0.27 0.01 0.54 0.03 0.81 0.04 2.07 0.11 4.16 0.2 6.28 0.27l0.86 0.03c2.14 0.07 4.31 0.13 6.51 0.16 0.23 0 0.46 0.01 0.69 0.01 2.29 0.04 4.61 0.06 6.96 0.06 2.19 0 4.35-0.02 6.49-0.05 0.32 0 0.64-0.01 0.95-0.01 2.04-0.03 4.05-0.08 6.05-0.14 0.36-0.01 0.71-0.02 1.07-0.04 2-0.07 3.98-0.15 5.93-0.24 0.25-0.01 0.5-0.03 0.75-0.04 2.02-0.1 4.02-0.22 6-0.36 0.03 0 0.06 0 0.09-0.01 1.97-0.14 3.91-0.29 5.83-0.46 0.29-0.03 0.58-0.05 0.86-0.07 1.83-0.16 3.64-0.34 5.43-0.54 0.34-0.04 0.67-0.07 1-0.11 1.79-0.2 3.57-0.41 5.32-0.64 0.24-0.03 0.48-0.07 0.73-0.1 1.74-0.23 3.47-0.47 5.18-0.74 0.09-0.01 0.19-0.03 0.28-0.04 24.92 26.13 70.91 44.96 123.28 50 0.13 0.02 0.26 0.04 0.38 0.06 1.16 0.22 2.32 0.41 3.49 0.58l0.39 0.06c1.25 0.18 2.51 0.32 3.77 0.45 0.19 0.02 0.37 0.04 0.55 0.05 1.24 0.11 2.49 0.2 3.74 0.26 0.18 0.01 0.37 0.01 0.55 0.02l1.42 0.06c0.81 0.02 1.63 0.03 2.44 0.03 52.93 0 96-46.65 96-104 0.03-0.96 0.02-1.9-0.01-2.84zM675.07 604.62c28.16 26.71 44.33 61.25 42.93 88.59a89.032 89.032 0 0 0-32.63-5.17c-0.19 0.01-0.39 0.02-0.58 0.02-0.7 0.02-1.39 0.05-2.09 0.1l-0.5 0.03c-0.74 0.05-1.48 0.1-2.21 0.17l-0.3 0.03c-0.83 0.08-1.65 0.17-2.47 0.27h-0.03c-1.9 0.23-3.78 0.52-5.64 0.87-2.03-34.4-11.09-71.86-25.83-106.98 10.31 5.99 20.22 13.41 29.35 22.07zM529.36 814.48l-0.91 0.09c-0.81 0.08-1.62 0.15-2.44 0.22-0.33 0.03-0.65 0.06-0.98 0.08-0.8 0.07-1.61 0.13-2.42 0.19-0.35 0.03-0.69 0.05-1.04 0.08-0.8 0.06-1.6 0.11-2.4 0.16-0.37 0.02-0.74 0.05-1.12 0.07-0.79 0.05-1.58 0.09-2.38 0.13l-1.19 0.06c-0.78 0.04-1.58 0.07-2.37 0.11-0.41 0.02-0.82 0.04-1.24 0.05-0.78 0.03-1.57 0.06-2.37 0.08-0.43 0.01-0.86 0.03-1.29 0.04l-2.37 0.06-1.33 0.03c-0.86 0.02-1.72 0.03-2.58 0.04-0.38 0-0.77 0.01-1.15 0.02-1.25 0.01-2.51 0.02-3.78 0.02-1.3 0-2.59-0.01-3.88-0.02-0.37 0-0.74-0.01-1.12-0.01-0.91-0.01-1.82-0.02-2.73-0.04l-1.23-0.03c-0.87-0.02-1.73-0.04-2.59-0.07-0.39-0.01-0.78-0.03-1.17-0.04l-2.64-0.09c-0.34-0.01-0.68-0.03-1.03-0.04-0.93-0.04-1.86-0.08-2.78-0.13-0.27-0.01-0.55-0.03-0.82-0.04-1.01-0.05-2.01-0.11-3-0.17l-0.54-0.03c-1.12-0.07-2.23-0.15-3.33-0.23-0.06 0-0.11-0.01-0.17-0.01-3.25-0.25-6.42-0.54-9.52-0.88 1.69-6.19 2.31-12.51 1.77-18.88-2.71-32.17-33.44-57.6-82.64-68.77-7.47-9.97-16.5-18.24-26.57-24.54 0.36-37.02 10.66-79.37 28.57-117.89C415.94 599.71 455.25 608 496 608s80.06-8.29 115.42-23.93c17.9 38.53 28.2 80.87 28.57 117.89-10.07 6.3-19.1 14.57-26.57 24.54-49.2 11.17-79.93 36.6-82.64 68.77-0.54 6.37 0.08 12.69 1.77 18.88-0.25 0.03-0.49 0.05-0.74 0.08-0.82 0.09-1.63 0.17-2.45 0.25zM421.25 819c-0.18 0.22-0.36 0.43-0.54 0.65-0.27 0.32-0.55 0.64-0.83 0.96-4.37 4.96-10.15 9.85-17.22 14.46-4.71 3.07-9.85 5.91-15.33 8.55C395.39 828.39 400 810.77 400 792c0-8.99-1.06-17.73-3.05-26.06 19.2 8.4 31.38 19.97 32.39 32.01 0.52 6.21-1.89 12.88-6.88 19.5-0.39 0.52-0.79 1.03-1.21 1.55zM298.81 475c-0.54-0.86-1.07-1.72-1.59-2.58-0.5-0.83-1-1.66-1.48-2.49-0.38-0.64-0.75-1.28-1.12-1.93-0.8-1.4-1.58-2.8-2.33-4.22l-0.21-0.39c-10.19-19.2-16.69-39.87-19.06-61.25-0.04-0.34-0.07-0.68-0.11-1.02-0.15-1.47-0.28-2.94-0.4-4.42-0.04-0.5-0.08-1-0.11-1.5-0.09-1.38-0.17-2.76-0.22-4.15-0.02-0.5-0.05-1.01-0.07-1.51-0.06-1.85-0.1-3.7-0.1-5.55 0-1.45 0.03-2.9 0.06-4.34l0.03-1.19c0.04-1.35 0.1-2.7 0.18-4.05 0.02-0.4 0.05-0.8 0.08-1.2 0.06-0.99 0.14-1.97 0.22-2.95 0.05-0.64 0.11-1.28 0.17-1.92 0.07-0.74 0.15-1.49 0.23-2.23 0.14-1.26 0.29-2.51 0.45-3.76 0.05-0.41 0.11-0.81 0.16-1.22 1.31-9.41 3.43-18.71 6.34-27.82 0.01-0.02 0.01-0.03 0.02-0.05 0.88-2.76 1.84-5.5 2.86-8.22 0.18-0.48 0.36-0.96 0.54-1.43 0.26-0.68 0.53-1.35 0.8-2.02 0.39-0.98 0.79-1.96 1.2-2.93 0.15-0.34 0.29-0.69 0.44-1.03 0.53-1.22 1.07-2.44 1.62-3.65 0.09-0.2 0.19-0.41 0.28-0.61 30.87-66.66 104.08-115.11 191.03-120.81l0.52-0.03c1.7-0.11 3.41-0.2 5.12-0.28 0.67-0.03 1.35-0.04 2.02-0.07 1.24-0.04 2.48-0.09 3.73-0.12 1.96-0.04 3.92-0.07 5.88-0.07s3.93 0.02 5.88 0.07c1.25 0.03 2.49 0.08 3.73 0.12 0.67 0.02 1.35 0.04 2.02 0.07 1.71 0.08 3.42 0.17 5.12 0.28l0.52 0.03c86.95 5.71 160.17 54.16 191.03 120.81 0.09 0.2 0.19 0.41 0.28 0.61 0.55 1.21 1.09 2.43 1.62 3.65 0.15 0.34 0.29 0.69 0.44 1.03 0.41 0.97 0.81 1.95 1.2 2.93 0.27 0.67 0.54 1.35 0.8 2.02 0.18 0.48 0.36 0.96 0.54 1.43 1.02 2.72 1.98 5.46 2.86 8.22 0.01 0.02 0.01 0.03 0.02 0.05 2.91 9.11 5.03 18.41 6.34 27.82 0.06 0.41 0.11 0.81 0.16 1.22 0.17 1.25 0.31 2.51 0.45 3.76a152.67 152.67 0 0 1 0.62 7.1c0.03 0.4 0.06 0.8 0.08 1.2 0.08 1.35 0.14 2.7 0.18 4.05l0.03 1.19c0.04 1.44 0.06 2.89 0.06 4.34 0 1.86-0.04 3.71-0.1 5.56-0.02 0.52-0.05 1.04-0.07 1.55-0.06 1.37-0.13 2.74-0.22 4.1l-0.12 1.58c-0.11 1.44-0.24 2.88-0.39 4.32l-0.12 1.16c-1.72 15.48-5.62 30.59-11.5 45.03-0.08 0.2-0.16 0.4-0.25 0.6-0.63 1.54-1.29 3.06-1.97 4.58-0.13 0.29-0.25 0.58-0.38 0.86-0.71 1.56-1.44 3.12-2.2 4.67-0.08 0.17-0.16 0.34-0.24 0.5-0.78 1.58-1.58 3.14-2.41 4.7-0.44 0.82-0.89 1.63-1.33 2.45-0.38 0.69-0.75 1.37-1.14 2.05-0.59 1.03-1.18 2.06-1.79 3.08-0.22 0.37-0.44 0.74-0.66 1.1C657.84 533.67 582.58 576 496 576c-84.47 0-158.16-40.29-196.31-99.62-0.3-0.46-0.6-0.91-0.88-1.38z m290.53 360.06c-17.96-11.7-27.68-25.22-26.68-37.1 1.01-12.04 13.19-23.61 32.39-32.01-1.99 8.33-3.05 17.06-3.05 26.06 0 18.77 4.61 36.39 12.67 51.6-5.48-2.64-10.62-5.49-15.33-8.55zM664 160c30.88 0 56 25.12 56 56 0 14.51-5.49 28.07-15.14 38.31-8.49-10.42-18.06-20.29-28.67-29.48-17.92-15.53-38.01-28.46-59.67-38.59C626.55 170.13 644.26 160 664 160z m-392 56c0-30.88 25.12-56 56-56 19.74 0 37.45 10.13 47.49 26.24-21.66 10.13-41.75 23.06-59.67 38.59-10.61 9.2-20.18 19.06-28.67 29.48C277.49 244.07 272 230.51 272 216z m42.99 388.62c9.89-9.38 20.69-17.33 31.92-23.54-15.11 35.54-24.41 73.57-26.46 108.45-1.86-0.35-3.74-0.64-5.64-0.87h-0.03c-0.82-0.1-1.64-0.19-2.47-0.27l-0.3-0.03c-0.74-0.07-1.47-0.12-2.21-0.17l-0.5-0.03a139.433 139.433 0 0 0-2.67-0.12 88.903 88.903 0 0 0-34.55 5.88c-1.77-27.43 14.38-62.25 42.91-89.3zM240 792c0-1.12 0.03-2.23 0.08-3.34l0.03-0.65c0.05-1.12 0.13-2.24 0.23-3.35 0-0.02 0-0.04 0.01-0.06 1.98-21.72 12.57-40.6 27.86-52.25 0.02-0.02 0.05-0.04 0.07-0.06 10.2-7.76 22.5-12.29 35.72-12.29 0.97 0 1.93 0.03 2.89 0.08l0.66 0.03c0.83 0.05 1.65 0.12 2.47 0.21 0.4 0.04 0.8 0.09 1.2 0.14 0.42 0.05 0.85 0.12 1.27 0.18 0.91 0.14 1.82 0.29 2.72 0.48l0.13 0.03c10.44 2.14 20.27 7.19 28.55 14.61 0.02 0.02 0.04 0.04 0.06 0.05 0.44 0.4 0.88 0.8 1.31 1.21 0.39 0.37 0.77 0.74 1.14 1.12 0.37 0.36 0.73 0.73 1.08 1.1 0.48 0.5 0.95 1.01 1.42 1.52 0.15 0.17 0.3 0.33 0.45 0.49a68.02 68.02 0 0 1 2.1 2.49C361.73 756.53 368 773.46 368 792c0 34.71-21.94 63.76-51.04 70.51-0.75 0.17-1.5 0.31-2.25 0.46-0.3 0.06-0.6 0.13-0.91 0.18-3.24 0.56-6.52 0.84-9.8 0.84-35.29 0.01-64-32.29-64-71.99z m448 72c-1.03 0-2.06-0.03-3.09-0.09-0.32-0.02-0.65-0.05-0.97-0.07-0.71-0.05-1.42-0.11-2.13-0.18-0.37-0.04-0.74-0.09-1.11-0.14-0.67-0.09-1.34-0.18-2.01-0.29a40.7 40.7 0 0 1-1.08-0.19c-0.13-0.02-0.26-0.05-0.38-0.08-0.73-0.14-1.47-0.28-2.2-0.45C645.94 855.76 624 826.71 624 792c0-18.55 6.27-35.48 16.55-48.26 0.06-0.08 0.13-0.16 0.19-0.24 0.62-0.77 1.26-1.51 1.9-2.25 0.14-0.16 0.29-0.32 0.43-0.48 0.47-0.52 0.95-1.03 1.44-1.54 0.35-0.36 0.7-0.72 1.05-1.07 0.39-0.39 0.78-0.77 1.17-1.14 0.43-0.41 0.87-0.81 1.31-1.21 0.02-0.02 0.05-0.04 0.07-0.06 8.29-7.42 18.11-12.46 28.55-14.6l0.13-0.03c0.9-0.18 1.81-0.34 2.73-0.48 0.42-0.06 0.84-0.13 1.26-0.18 0.4-0.05 0.8-0.1 1.2-0.14 0.82-0.09 1.64-0.16 2.47-0.21l0.66-0.03c0.96-0.05 1.92-0.08 2.89-0.08 12.07 0 23.37 3.78 33.02 10.35 0.1 0.07 0.2 0.14 0.3 0.2a63.48 63.48 0 0 1 5.23 4.02c0.61 0.52 1.2 1.04 1.79 1.58 0.16 0.15 0.33 0.29 0.49 0.44 0.63 0.59 1.24 1.19 1.85 1.8 0.32 0.32 0.64 0.65 0.95 0.99 0.28 0.29 0.55 0.58 0.82 0.88 10.24 11.18 16.98 25.98 18.95 41.94 0.05 0.39 0.09 0.78 0.13 1.17 0.07 0.63 0.13 1.26 0.19 1.89a71.718 71.718 0 0 1 0.21 3.54c0.04 1.06 0.07 2.13 0.07 3.2 0 39.7-28.71 72-64 72z" fill="#009986" /><path d="M420 324m-28 0a28 28 0 1 0 56 0 28 28 0 1 0-56 0Z" fill="#009986" /><path d="M572 324m-28 0a28 28 0 1 0 56 0 28 28 0 1 0-56 0Z" fill="#009986" /></svg>